<svg width="16" height="16" viewBox="0 0 16 16" fill="none" xmlns="http://www.w3.org/2000/svg">
<path d="M12.9231 15.9998H3.07692C2.26087 15.9998 1.47824 15.6756 0.90121 15.0986C0.324175 14.5216 0 13.7389 0 12.9229V4.30751C0 3.49146 0.324175 2.70884 0.90121 2.1318C1.47824 1.55477 2.26087 1.23059 3.07692 1.23059H12.9231C13.7391 1.23059 14.5218 1.55477 15.0988 2.1318C15.6758 2.70884 16 3.49146 16 4.30751V12.9229C16 13.7389 15.6758 14.5216 15.0988 15.0986C14.5218 15.6756 13.7391 15.9998 12.9231 15.9998V15.9998ZM3.07692 2.46136C2.58729 2.46136 2.11772 2.65587 1.7715 3.00209C1.42527 3.34831 1.23077 3.81788 1.23077 4.30751V12.9229C1.23077 13.4125 1.42527 13.8821 1.7715 14.2283C2.11772 14.5745 2.58729 14.7691 3.07692 14.7691H12.9231C13.4127 14.7691 13.8823 14.5745 14.2285 14.2283C14.5747 13.8821 14.7692 13.4125 14.7692 12.9229V4.30751C14.7692 3.81788 14.5747 3.34831 14.2285 3.00209C13.8823 2.65587 13.4127 2.46136 12.9231 2.46136H3.07692Z" fill="black"/>
<path d="M12.9246 13.5391H10.463C10.2998 13.5391 10.1433 13.4743 10.0279 13.3589C9.91249 13.2435 9.84766 13.0869 9.84766 12.9237V10.4622C9.84766 10.299 9.91249 10.1425 10.0279 10.027C10.1433 9.91164 10.2998 9.8468 10.463 9.8468H12.9246C13.0878 9.8468 13.2443 9.91164 13.3597 10.027C13.4751 10.1425 13.54 10.299 13.54 10.4622V12.9237C13.54 13.0869 13.4751 13.2435 13.3597 13.3589C13.2443 13.4743 13.0878 13.5391 12.9246 13.5391ZM11.0784 12.3083H12.3092V11.0776H11.0784V12.3083Z" fill="black"/>
<path d="M15.3846 6.15374H0.615385C0.452174 6.15374 0.295649 6.08891 0.180242 5.9735C0.064835 5.85809 0 5.70157 0 5.53836C0 5.37515 0.064835 5.21862 0.180242 5.10322C0.295649 4.98781 0.452174 4.92297 0.615385 4.92297H15.3846C15.5478 4.92297 15.7044 4.98781 15.8198 5.10322C15.9352 5.21862 16 5.37515 16 5.53836C16 5.70157 15.9352 5.85809 15.8198 5.9735C15.7044 6.08891 15.5478 6.15374 15.3846 6.15374Z" fill="black"/>
<path d="M4.92398 3.69243C4.76077 3.69243 4.60424 3.62759 4.48884 3.51219C4.37343 3.39678 4.30859 3.24026 4.30859 3.07705V0.615507C4.30859 0.452297 4.37343 0.295771 4.48884 0.180364C4.60424 0.064957 4.76077 0.00012207 4.92398 0.00012207C5.08719 0.00012207 5.24371 0.064957 5.35912 0.180364C5.47453 0.295771 5.53936 0.452297 5.53936 0.615507V3.07705C5.53936 3.24026 5.47453 3.39678 5.35912 3.51219C5.24371 3.62759 5.08719 3.69243 4.92398 3.69243Z" fill="black"/>
<path d="M11.0763 3.69243C10.9131 3.69243 10.7566 3.62759 10.6412 3.51219C10.5258 3.39678 10.4609 3.24026 10.4609 3.07705V0.615507C10.4609 0.452297 10.5258 0.295771 10.6412 0.180364C10.7566 0.064957 10.9131 0.00012207 11.0763 0.00012207C11.2395 0.00012207 11.3961 0.064957 11.5115 0.180364C11.6269 0.295771 11.6917 0.452297 11.6917 0.615507V3.07705C11.6917 3.24026 11.6269 3.39678 11.5115 3.51219C11.3961 3.62759 11.2395 3.69243 11.0763 3.69243Z" fill="black"/>
</svg>
