<?xml version="1.0" encoding="UTF-8"?>
<svg fill="none" viewBox="0 0 69 69" xmlns="http://www.w3.org/2000/svg">
<mask id="ag" x="0" y="0" width="69" height="69" mask-type="alpha" maskUnits="userSpaceOnUse">
<circle cx="34.5" cy="34.5" r="34.5" fill="#3B3B3B"/>
</mask>
<g mask="url(#ag)">
<path d="m39.284 16.221 0.0572 0.0736c-7.2073 5.5366-14.945 17.939-17.248 27.647-1.1655 4.9108-0.748 8.429 1.1452 9.6544 1.6763 1.0846 4.3824 0.3131 7.6189-2.1741 7.207-5.5363 14.945-17.938 17.248-27.646 1.1657-4.9111 0.7483-8.4294-1.1448-9.6547-1.6762-1.085-4.3826-0.3135-7.6191 2.1736l-0.0572-0.0736zm-13.15 37.9c-1.1832 0.2668-2.1984 0.1481-2.9976-0.3693-1.9629-1.2696-2.4094-4.8616-1.2248-9.8534 2.3122-9.7428 10.08-22.192 17.316-27.751 3.3037-2.5383 6.0861-3.313 7.8338-2.1818 1.9629 1.2697 2.4092 4.8612 1.2245 9.8532-2.3122 9.7432-10.08 22.192-17.316 27.752-1.7928 1.3769-3.4321 2.2358-4.836 2.551z" fill="url(#af)"/>
<path d="m38.346 16.727 0.0567 0.0696c-6.6109 5.5295-13.475 17.702-15.302 27.133-0.9245 4.7709-0.4031 8.1572 1.4297 9.2915 1.6233 1.0045 4.1524 0.1904 7.1211-2.2935 6.6105-5.5293 13.475-17.701 15.302-27.132 0.9246-4.7712 0.4033-8.1575-1.4296-9.292-1.6229-1.0046-4.1524-0.1906-7.1211 2.2933l-0.0567-0.0696zm-11.06 36.927c-1.1082 0.2879-2.0718 0.199-2.8458-0.2797-1.9006-1.1759-2.452-4.6324-1.5121-9.4821 1.8335-9.4655 8.7252-21.683 15.362-27.236 3.0304-2.535 5.6318-3.3541 7.3238-2.3067 1.9004 1.1758 2.4518 4.632 1.5121 9.4816-1.8341 9.466-8.7256 21.684-15.363 27.236-1.6444 1.375-3.1623 2.2462-4.4776 2.5864z" fill="url(#u)"/>
<path d="m37.817 17.202 0.0532 0.0688c-6.004 5.3002-12.139 17.087-13.676 26.274-0.7774 4.6473-0.2447 7.9641 1.4614 9.1012 1.5108 1.0065 3.8279 0.2506 6.5244-2.1304 6.0038-5.2999 12.139-17.086 13.676-26.273 0.7779-4.6479 0.2452-7.9644-1.461-9.1016-1.5106-1.0068-3.8281-0.251-6.5245 2.1299l-0.0532-0.0688zm-9.616 35.91c-1.0167 0.2641-1.9055 0.1621-2.6259-0.3177-1.7691-1.1784-2.3306-4.5643-1.54-9.2884 1.5424-9.2201 7.7014-21.051 13.729-26.373 2.7523-2.4299 5.1359-3.1898 6.7109-2.1399 1.7689 1.1785 2.3304 4.5639 1.54 9.2881-1.5427 9.2207-7.7018 21.051-13.73 26.373-1.4935 1.3179-2.8784 2.1454-4.0847 2.4575z" fill="url(#j)"/>
<path d="m37.369 17.689 0.0503 0.0679c-5.5094 5.0898-11.058 16.501-12.368 25.437-0.6631 4.5204-0.1257 7.7606 1.4733 8.8907 1.4163 1.0006 3.559 0.2934 6.0332-1.9932 5.509-5.0895 11.058-16.5 12.368-25.436 0.6629-4.5206 0.126-7.7606-1.473-8.8907-1.4162-1.0011-3.5592-0.2937-6.0334 1.9927l-0.0503-0.0679zm-8.4741 34.882c-0.9408 0.2444-1.768 0.1336-2.4432-0.3433-1.6582-1.1715-2.2228-4.4793-1.5489-9.0742 1.315-8.9682 6.8852-20.422 12.416-25.533 2.5256-2.3332 4.7298-3.0437 6.2062-2 1.6581 1.1713 2.2229 4.4785 1.5488 9.0737-1.3153 8.9687-6.8854 20.422-12.417 25.533-1.3704 1.2655-2.646 2.0546-3.7626 2.3434z" fill="url(#g)"/>
<path d="m36.599 18.542 0.0494 0.063c-4.974 4.9785-9.7652 15.968-10.68 24.497-0.4634 4.3147 0.1514 7.3818 1.6857 8.4158 1.3585 0.9156 3.3372 0.1889 5.571-2.0475 4.9739-4.9783 9.7652-15.967 10.68-24.496 0.4631-4.3148-0.1515-7.3818-1.6854-8.416-1.3586-0.916-3.3376-0.1894-5.5714 2.0471l-0.0494-0.063zm-6.7128 33.379c-0.871 0.2561-1.6479 0.1717-2.2958-0.2648-1.5908-1.0718-2.2333-4.2024-1.7626-8.5883 0.9185-8.5598 5.7287-19.591 10.723-24.59 2.2799-2.2822 4.3159-3.0132 5.7326-2.0585 1.5905 1.0719 2.2332 4.2022 1.7625 8.5882-0.9187 8.5602-5.7288 19.591-10.723 24.59-1.2372 1.2379-2.4024 2.0203-3.4365 2.323z" fill="url(#f)"/>
<path d="m36.19 19.047 0.0461 0.0618c-4.4153 4.7121-8.5517 15.23-9.2207 23.446-0.3386 4.1565 0.2764 7.129 1.6867 8.1564 1.2489 0.9093 3.029 0.2453 5.0119-1.8716 4.4154-4.7116 8.5519-15.229 9.2206-23.446 0.3388-4.1565-0.2764-7.1289-1.6864-8.1564-1.249-0.9098-3.0293-0.2458-5.0121 1.8709l-0.0461-0.0618zm-5.4565 32.096c-0.7847 0.2308-1.4906 0.1346-2.0862-0.299-1.4624-1.0647-2.1038-4.0991-1.7597-8.3242 0.6712-8.246 4.8241-18.804 9.2573-23.535 2.0241-2.1602 3.8559-2.8272 5.1581-1.8789 1.4621 1.065 2.1035 4.0989 1.7597 8.3241-0.6715 8.2465-4.8244 18.804-9.2574 23.535-1.0986 1.1717-2.14 1.9049-3.0718 2.1778z" fill="url(#e)"/>
<path d="m35.478 19.696 0.0445 0.0578c-3.8386 4.5654-7.17 14.645-7.4257 22.469-0.1295 3.9579 0.5628 6.7717 1.899 7.7211 1.1831 0.8401 2.7846 0.1743 4.5084-1.8768 3.8389-4.5649 7.1702-14.644 7.4258-22.468 0.1296-3.9578-0.5628-6.7715-1.8985-7.7211-1.1834-0.8405-2.7849-0.1746-4.509 1.8762l-0.0445-0.0578zm-3.6031 30.618c-0.7087 0.2349-1.3596 0.157-1.9234-0.2434-1.3857-0.9839-2.1048-3.8561-1.9733-7.8794 0.2565-7.8521 3.6013-17.97 7.4555-22.554 1.7597-2.093 3.4086-2.7629 4.6421-1.8866 1.3851 0.9838 2.1044 3.8555 1.973 7.8791-0.2568 7.8526-3.6013 17.97-7.4556 22.554-0.9551 1.1352-1.877 1.8524-2.7183 2.1298z" fill="url(#d)"/>
<path d="m35.031 20.367 0.0413 0.0567c-3.2953 4.2733-5.9989 13.841-6.0269 21.326-0.0144 3.7869 0.6729 6.4992 1.8846 7.4424 1.0729 0.8347 2.4792 0.2381 3.9589-1.6819 3.2955-4.2731 5.9993-13.84 6.0269-21.326 0.0145-3.7868-0.6726-6.4991-1.8842-7.4423-1.073-0.8354-2.4794-0.2386-3.9593 1.6815l-0.0413-0.0567zm-2.4216 29.228c-0.6239 0.2068-1.2042 0.1157-1.7157-0.2822-1.2565-0.9778-1.9688-3.7467-1.9543-7.5959 0.0277-7.5126 2.7422-17.116 6.0509-21.407 1.5108-1.9594 2.959-2.5585 4.0776-1.6878 1.2561 0.9776 1.9686 3.7458 1.9543 7.5955-0.0282 7.5131-2.7425 17.116-6.0513 21.407-0.8196 1.0626-1.6209 1.7259-2.3615 1.97z" fill="url(#c)"/>
<path d="m34.491 21.036 0.0393 0.0533c-2.7716 4.0533-4.7902 13.113-4.4993 20.195 0.1471 3.5833 0.8772 6.1471 2.0025 7.0358 0.9963 0.7865 2.2309 0.2176 3.4755-1.6033 2.7716-4.0528 4.7904-13.112 4.4992-20.195-0.1467-3.5827-0.877-6.1469-2.0019-7.0355-0.9965-0.7873-2.2314-0.2184-3.476 1.6025l-0.0393-0.0533zm-0.9361 27.66c-0.5501 0.1975-1.0738 0.1132-1.5489-0.2617-1.1667-0.9214-1.922-3.5388-2.0714-7.1805-0.2922-7.108 1.7344-16.202 4.5174-20.272 1.2707-1.8581 2.5427-2.4295 3.5816-1.609 1.1664 0.921 1.9214 3.5379 2.0713 7.1803 0.292 7.1083-1.7346 16.202-4.5174 20.272-0.6896 1.0082-1.3795 1.6381-2.0326 1.871z" fill="url(#b)"/>
<path d="m33.929 21.843 0.037 0.0498c-2.2734 3.7696-3.6772 12.208-3.1292 18.809 0.2772 3.34 1.0254 5.7316 2.0529 6.5633 0.9096 0.736 1.9731 0.2095 2.994-1.4843 2.2732-3.7691 3.6772-12.207 3.1292-18.809-0.277-3.3394-1.0255-5.7314-2.0526-6.5628-0.91-0.7369-1.9736-0.2102-2.9943 1.4834l-0.037-0.0498zm0.3157 25.777c-0.4762 0.1824-0.9407 0.1021-1.3745-0.2486-1.0653-0.862-1.838-3.3036-2.1197-6.6984-0.5502-6.6254 0.8593-15.095 3.1421-18.88 1.0422-1.7282 2.1386-2.2569 3.0873-1.4893 1.0648 0.862 1.8374 3.3033 2.1194 6.6982 0.5499 6.6261-0.8597 15.096-3.1423 18.881-0.5655 0.9375-1.1468 1.5227-1.7123 1.7379z" fill="url(#a)"/>
<path d="m33.426 22.664 0.0351 0.0458c-1.8081 3.516-2.6066 11.358-1.7799 17.48 0.418 3.0972 1.2022 5.3109 2.1511 6.0749 0.8402 0.6761 1.7504 0.1791 2.5621-1.4006 1.808-3.5153 2.6068-11.357 1.78-17.48-0.418-3.0969-1.2022-5.3107-2.1507-6.0744-0.8408-0.6766-1.7512-0.1801-2.5626 1.3996l-0.0351-0.0458zm1.6192 23.919c-0.4101 0.1731-0.8241 0.1023-1.2245-0.2199-0.9841-0.792-1.7923-3.052-2.2172-6.2-0.8297-6.1445-0.0278-14.016 1.7876-17.546 0.8289-1.6118 1.7679-2.111 2.6442-1.4061 0.9834 0.7917 1.7918 3.0515 2.2167 6.1999 0.8296 6.1449 0.0277 14.016-1.7875 17.546-0.4501 0.8743-0.932 1.4221-1.4193 1.6261z" fill="url(#ae)"/>
<path d="m32.998 23.613 0.0315 0.0434c-1.2491 3.1447-1.3954 10.284-0.3261 15.915 0.5409 2.8484 1.3236 4.9029 2.1475 5.6385 0.7294 0.6507 1.4403 0.2315 2.001-1.1816 1.249-3.1442 1.3955-10.283 0.3259-15.914-0.5406-2.8484-1.3233-4.903-2.1468-5.6384-0.7298-0.6514-1.4409-0.2323-2.0015 1.1807l-0.0315-0.0434zm2.8635 21.935c-0.3238 0.1423-0.6664 0.0615-1.0137-0.2486-0.8542-0.7623-1.6597-2.8603-2.2093-5.7554-1.0735-5.6508-0.9263-12.817 0.3279-15.975 0.5728-1.4418 1.3069-1.8618 2.0676-1.1832 0.854 0.7621 1.6593 2.8598 2.2091 5.7553 1.0732 5.6511 0.926 12.817-0.328 15.975-0.3109 0.7821-0.6692 1.2642-1.0536 1.4319z" fill="url(#ad)"/>
<path d="m44.901 13.347c-1.2697 0.2852-2.7356 0.9775-4.3399 2.065-7.6036 5.149-16.212 17.633-19.19 27.83-1.5599 5.3434-1.3213 9.2345 0.6563 10.676 1.6232 1.1832 4.3254 0.6105 7.6087-1.6131 7.6036-5.1493 16.212-17.634 19.19-27.83 1.5603-5.3436 1.3217-9.235-0.6558-10.676-0.83-0.6052-1.9416-0.7509-3.2688-0.452zm-19.564 41.203c-1.3825 0.3107-2.5455 0.1559-3.4187-0.4814-2.0451-1.4902-2.309-5.4549-0.7255-10.879 2.9885-10.231 11.63-22.762 19.264-27.931 3.3535-2.2711 6.1313-2.8429 7.8227-1.6093 2.0449 1.4899 2.3087 5.4548 0.7252 10.879-2.9885 10.232-11.63 22.761-19.263 27.931-1.6211 1.0982-3.1084 1.7996-4.4041 2.0908z" fill="url(#ac)"/>
<path d="m45.641 12.991c-1.1313 0.2545-2.4091 0.7925-3.7958 1.6073-7.9731 4.6877-17.46 17.162-21.147 27.808-1.9986 5.7723-1.9655 10.05 0.0922 11.735 1.5687 1.2848 4.255 0.9215 7.5639-1.024 7.9729-4.687 17.46-17.162 21.147-27.808 1.9988-5.7723 1.9657-10.05-0.092-11.735-0.9114-0.7464-2.1997-0.9368-3.768-0.5835zm-21.04 41.913c-1.6279 0.3668-2.9716 0.1653-3.9287-0.6184-2.1211-1.7384-2.1753-6.0901-0.1496-11.94 3.6997-10.682 13.223-23.201 21.229-27.907 3.3813-1.9878 6.1428-2.3455 7.7755-1.0081 2.1216 1.7381 2.1759 6.0901 0.1503 11.94-3.7001 10.682-13.223 23.201-21.229 27.907-1.4007 0.8232-2.6949 1.3675-3.8474 1.6266z" fill="url(#ab)"/>
<path d="m46.336 12.69c-0.9538 0.2152-2.0071 0.6084-3.1505 1.179-8.3117 4.1472-18.677 16.512-23.107 27.562-2.4797 6.1881-2.6803 10.863-0.5506 12.826 1.532 1.4117 4.1196 1.2706 7.4827-0.4085 8.3114-4.1474 18.677-16.512 23.106-27.562 2.4799-6.1883 2.6806-10.863 0.5505-12.825-1.0111-0.932-2.4818-1.1869-4.3316-0.7708zm-22.434 42.517c-1.9145 0.4308-3.4415 0.1605-4.5001-0.8143-2.1901-2.0177-2.0057-6.7677 0.5041-13.032 4.4442-11.086 14.849-23.494 23.196-27.659 3.4378-1.7165 6.0977-1.8472 7.6915-0.3782 2.1903 2.0174 2.0059 6.7674-0.504 13.031-4.4441 11.086-14.849 23.494-23.196 27.659-1.1552 0.576-2.2229 0.9743-3.1917 1.1923z" fill="url(#aa)"/>
<path d="m46.891 12.487c-0.7193 0.1618-1.4909 0.4107-2.3109 0.7463-8.6128 3.529-19.851 15.675-25.051 27.076-2.9573 6.4848-3.4352 11.696-1.2775 13.939 1.4669 1.5263 4.0153 1.6075 7.3675 0.2346 8.6129-3.5292 19.851-15.674 25.052-27.076 2.9571-6.4854 3.435-11.696 1.2772-13.94-1.1084-1.1528-2.8336-1.4806-5.0564-0.9807zm-23.542 42.923c-2.2908 0.5157-4.0762 0.1699-5.2321-1.0328-2.2459-2.3349-1.793-7.4907 1.242-14.145 5.2169-11.438 16.499-23.627 25.151-27.171l0.0353 0.0862-0.0353-0.0862c3.4283-1.404 6.0472-1.3078 7.5714 0.2777 2.2459 2.3349 1.7928 7.4906-1.2423 14.145-5.2172 11.438-16.499 23.627-25.15 27.171-0.8283 0.3394-1.6096 0.5912-2.3394 0.7553z" fill="url(#z)"/>
<path d="m45.992 12.619 0.0284 0.088c-8.8733 2.8271-20.97 14.64-26.967 26.332-3.5074 6.8393-4.2907 12.471-2.0939 15.065 1.3977 1.6511 3.8945 1.9637 7.218 0.9046 8.8732-2.8266 20.97-14.64 26.967-26.332 3.5073-6.8392 4.2907-12.471 2.094-15.065-1.3977-1.6512-3.8949-1.9637-7.2182-0.9049l-0.0284-0.088zm-23.043 42.918c-2.7654 0.6229-4.87 0.1775-6.1321-1.3122-2.246-2.6535-1.4718-8.3622 2.0714-15.27 6.0158-11.73 18.162-23.584 27.076-26.424 3.4013-1.0843 5.9661-0.7509 7.4174 0.9614 2.246 2.6533 1.4717 8.3622-2.0715 15.27-6.0155 11.731-18.162 23.584-27.076 26.424-0.4424 0.1409-0.8709 0.2579-1.2851 0.3509z" fill="url(#y)"/>
<path d="m47.493 12.305c-9.0836 2.0449-22.015 13.399-28.829 25.313-4.0883 7.1488-5.212 13.202-3.0047 16.19 1.321 1.7885 3.7553 2.344 7.0392 1.6059 0.0013-4e-4 0.0036-8e-4 0.0047-1e-3 9.0838-2.0443 22.015-13.399 28.829-25.313 4.0885-7.1493 5.2118-13.201 3.0049-16.189-1.3209-1.7887-3.7556-2.3439-7.0398-1.6055-0.0012 0-0.0034 4e-4 -0.0044 8e-4zm-24.75 43.288c-0.0018 4e-4 -0.0028 7e-4 -0.0046 0.0012-3.3615 0.7558-5.8613 0.1763-7.2294-1.6761-2.2522-3.0492-1.1341-9.1772 2.993-16.393 6.8364-11.952 19.822-23.346 28.95-25.401 0.0016-2e-4 0.0028-3e-4 0.0044-8e-4 3.3615-0.756 5.8616-0.1765 7.2292 1.6761 2.253 3.0495 1.1339 9.1774-2.9924 16.393-6.8366 11.952-19.823 23.346-28.95 25.401z" fill="url(#x)"/>
<path d="m47.476 12.307c-9.173 2.0656-21.865 12.32-29.103 23.735-4.6935 7.3999-6.1941 13.866-4.0155 17.295 1.2348 1.9439 3.5974 2.7538 6.8318 2.3435 9.2398-1.1742 22.984-11.943 30.633-24.007 4.6934-7.4001 6.194-13.866 4.0156-17.295-1.235-1.9436-3.5977-2.754-6.8321-2.3434-0.4974 0.0629-1.0082 0.1544-1.5303 0.2717zm-24.722 43.284c-0.5261 0.1188-1.0398 0.21-1.5408 0.274-3.3109 0.4205-5.7357-0.4192-7.0121-2.4278-2.2182-3.4921-0.7169-10.032 4.0155-17.495 7.6755-12.104 21.478-22.91 30.767-24.091 3.3106-0.4207 5.7355 0.4186 7.012 2.4275 2.2179 3.4921 0.7166 10.032-4.0155 17.495-7.2618 11.451-20.007 21.741-29.226 23.817z" fill="url(#w)"/>
<path d="m47.205 12.354c-9.195 2.0703-21.473 11.194-29.014 21.958-5.3082 7.5775-7.2249 14.44-5.1268 18.359 1.1354 2.121 3.4165 3.2022 6.5967 3.1276 1.0503-0.025 2.1668-0.1742 3.3316-0.4363 9.1954-2.0701 21.473-11.194 29.014-21.958 5.3079-7.5776 7.2251-14.441 5.1271-18.359-1.1354-2.1213-3.4164-3.2021-6.5966-3.1276-1.0505 0.0244-2.167 0.1742-3.3319 0.4364zm-24.184 43.191c-1.1743 0.2643-2.2974 0.4142-3.3559 0.4387-3.2554 0.0774-5.5948-1.0382-6.765-3.2255-2.1326-3.981-0.2109-10.917 5.1385-18.553 8.5259-12.17 23.104-22.252 32.494-22.474 3.2554-0.0769 5.5945 1.0389 6.7651 3.226 2.1323 3.9812 0.2108 10.917-5.1388 18.553-7.5654 10.798-19.894 19.953-29.138 22.035z" fill="url(#v)"/>
<path d="m46.628 12.427c-9.1178 2.0533-20.803 10.038-28.501 20.002-5.9218 7.6652-8.2931 14.9-6.3429 19.35 1.02 2.3284 3.2112 3.7027 6.3364 3.975 9.3711 0.8172 24.601-8.3636 33.95-20.465 5.9218-7.6656 8.293-14.9 6.3427-19.349-1.0198-2.3284-3.2109-3.703-6.3362-3.975-1.6551-0.1443-3.4924 0.0224-5.4485 0.4626zm-23.032 43.045c-1.9713 0.4439-3.8226 0.6126-5.4911 0.4674-3.198-0.2787-5.4421-1.6917-6.4912-4.0864-1.9776-4.5139 0.4027-11.817 6.3661-19.537 9.3834-12.146 24.687-21.359 34.113-20.538 3.1979 0.2788 5.4421 1.6923 6.4909 4.0865 1.9777 4.5137-0.4025 11.817-6.366 19.538-7.7231 9.9962-19.455 18.006-28.622 20.07z" fill="url(#t)"/>
<path d="m45.704 12.501c-8.9067 2.0051-19.824 8.8667-27.511 17.892-6.5143 7.6488-9.3776 15.212-7.6574 20.229 0.8807 2.5719 2.9724 4.269 6.0464 4.9075 9.3305 1.9379 25.222-6.2294 35.423-18.206 6.5148-7.6496 9.3781-15.212 7.6579-20.23-0.8809-2.5719-2.9724-4.269-6.0465-4.9076-2.3002-0.4775-4.9989-0.3408-7.9124 0.3151zm-21.181 42.894c-2.9372 0.6612-5.6587 0.7984-7.9796 0.3171-3.1419-0.6523-5.2804-2.3915-6.1843-5.0294-1.741-5.0808 1.1345-12.711 7.6929-20.411 10.24-12.023 26.212-20.218 35.603-18.268 3.1418 0.6524 5.2801 2.3919 6.1845 5.0295 1.7406 5.0809-1.1349 12.711-7.6931 20.411-7.7099 9.0527-18.67 15.935-27.623 17.951z" fill="url(#s)"/>
<path d="m44.404 12.541c-8.5272 1.9201-18.516 7.703-26.005 15.667-7.0686 7.5172-10.457 15.351-9.063 20.956 0.71171 2.8618 2.6889 4.9205 5.7186 5.9531 9.2138 3.1403 25.698-3.8614 36.744-15.608 7.0688-7.5175 10.457-15.352 9.0635-20.956-0.7117-2.8614-2.689-4.9201-5.7185-5.9529-2.9678-1.0112-6.6882-0.9706-10.739-0.0588zm-18.577 42.811c-4.0848 0.9201-7.8376 0.961-10.832-0.0592-3.0922-1.0544-5.1116-3.1576-5.8394-6.0841-1.409-5.6665 1.9962-13.565 9.1086-21.128 11.092-11.794 27.662-18.818 36.939-15.657 3.0922 1.054 5.1116 3.1573 5.8394 6.0841 1.4089 5.6661-1.9964 13.564-9.1089 21.129-7.5113 7.9866-17.536 13.786-26.107 15.715z" fill="url(#r)"/>
<path d="m42.738 12.501c-7.9583 1.7916-16.883 6.5612-23.982 13.376-7.563 7.2606-11.504 15.289-10.541 21.476 0.4993 3.2061 2.3448 5.6765 5.3379 7.1446 9.0141 4.4223 26.01-1.2563 37.886-12.658 7.5635-7.261 11.505-15.29 10.542-21.477-0.4991-3.2057-2.3447-5.6764-5.3378-7.1446-3.627-1.7797-8.5473-1.9233-13.905-0.7168zm-15.24 42.89c-5.4024 1.2164-10.366 1.0699-14.027-0.7255-3.0503-1.4961-4.931-4.0146-5.4395-7.2835-0.9723-6.2467 2.9886-14.336 10.595-21.639 11.929-11.452 29.019-17.145 38.097-12.692 3.0505 1.4962 4.9307 4.0142 5.4394 7.2834 0.9724 6.2467-2.9887 14.336-10.596 21.639-7.1177 6.8339-16.075 11.617-24.07 13.418z" fill="url(#q)"/>
<path d="m40.765 12.324c-7.198 1.6209-14.969 5.4613-21.489 11.084-7.9775 6.8777-12.485 15.004-12.06 21.736 0.2288 3.6115 1.9146 6.5573 4.8757 8.5182 8.7257 5.7797 26.145 1.5841 38.829-9.3541 7.9777-6.8783 12.485-15.004 12.06-21.737-0.2288-3.6117-1.9147-6.5575-4.875-8.5186-4.2409-2.8087-10.535-3.2617-17.341-1.7293zm-11.286 43.243c-6.8604 1.5447-13.209 1.086-17.49-1.7493-3.0116-1.9946-4.7257-4.9892-4.9581-8.6611-0.42928-6.7908 4.1026-14.974 12.124-21.89 12.743-10.988 30.263-15.191 39.054-9.3684 3.0113 1.9949 4.7255 4.9892 4.9579 8.6614 0.4295 6.7906-4.1028 14.974-12.123 21.89-6.5386 5.6374-14.336 9.4896-21.564 11.118z" fill="url(#p)"/>
<path d="m38.59 11.947c-6.2747 1.4126-12.844 4.4177-18.624 8.8606-8.2945 6.3741-13.37 14.481-13.578 21.687-0.11697 4.0806 1.3684 7.5743 4.2958 10.104 8.3442 7.2097 26.085 4.658 39.547-5.6887 8.2945-6.3742 13.37-14.481 13.578-21.687 0.1169-4.0806-1.3685-7.574-4.2957-10.104-4.7615-4.1137-12.583-5.0497-20.923-3.1719zm-6.9328 43.998c-8.4032 1.8926-16.29 0.9454-21.094-3.2059-2.9714-2.5673-4.479-6.112-4.36-10.251 0.20875-7.2605 5.3114-15.421 13.65-21.829 13.529-10.398 31.376-12.947 39.782-5.6823 2.971 2.5675 4.4792 6.1123 4.3599 10.251-0.2089 7.2602-5.3114 15.42-13.65 21.829-5.7967 4.4543-12.388 7.4693-18.688 8.8873z" fill="url(#o)"/>
<path d="m36.353 11.307c-5.2382 1.18-10.602 3.4464-15.516 6.7767-8.5033 5.7607-14.127 13.718-15.043 21.283-0.55803 4.6086 0.67077 8.7317 3.5529 11.924 7.8629 8.7072 25.813 7.9635 40.014-1.6585 8.5035-5.7611 14.127-13.718 15.043-21.284 0.5577-4.6081-0.6709-8.7313-3.5534-11.923-5.1419-5.694-14.597-7.3471-24.497-5.1181zm-2.4596 45.278c-9.969 2.2445-19.498 0.5739-24.685-5.1702-2.9195-3.2326-4.1641-7.4064-3.5992-12.07 0.92233-7.6183 6.5757-15.624 15.122-21.415 14.276-9.6716 32.334-10.403 40.257-1.6288 2.9199 3.2328 4.1642 7.4062 3.5994 12.07-0.922 7.6183-6.5756 15.624-15.123 21.415-4.9296 3.34-10.313 5.6146-15.572 6.7988z" fill="url(#n)"/>
<path d="m34.197 10.359c-4.1483 0.9341-8.3354 2.5576-12.301 4.8906-8.5993 5.0579-14.73 12.722-16.399 20.504-1.1109 5.1794-0.21278 10.013 2.5982 13.978 5.3401 7.5326 16.473 10.199 27.904 7.6263 4.1486-0.9338 8.3353-2.5579 12.3-4.8906 8.5995-5.0577 14.73-12.723 16.399-20.504 1.1105-5.1796 0.2128-10.013-2.5985-13.978-5.3399-7.5334-16.473-10.2-27.904-7.6268zm1.8504 47.177c-11.507 2.5912-22.72-0.1015-28.104-7.6969-2.8412-4.0075-3.7496-8.8924-2.6276-14.124 1.6792-7.8314 7.8429-15.542 16.486-20.625 14.972-8.8056 33.118-7.5551 40.452 2.7888 2.8409 4.0079 3.7496 8.8919 2.6273 14.124-1.6794 7.8317-7.8429 15.542-16.486 20.626-3.9786 2.3399-8.183 3.9698-12.347 4.9074z" fill="url(#m)"/>
<path d="m32.238 9.069c-3.0542 0.6878-6.1136 1.7635-9.0848 3.2469-8.7127 4.35-15.122 11.4-17.587 19.343-1.7892 5.769-1.3118 11.389 1.383 16.25 5.325 9.6067 18.106 13.642 31.009 10.738 3.0542-0.6874 6.1134-1.7636 9.085-3.2472 8.7127-4.3498 15.122-11.4 17.587-19.342 1.7897-5.7694 1.3121-11.388-1.3827-16.25-5.3253-9.607-18.106-13.643-31.009-10.738zm5.7646 49.758c-12.986 2.9236-25.85-1.1476-31.217-10.828-2.7197-4.907-3.2027-10.577-1.3973-16.396 2.4797-7.9897 8.9242-15.081 17.682-19.453 15.611-7.7942 33.706-4.3995 40.34 7.5674 2.7195 4.9065 3.2026 10.576 1.3976 16.396-2.4795 7.99-8.9243 15.082-17.682 19.454-2.982 1.4893-6.0565 2.5704-9.123 3.2608z" fill="url(#l)"/>
<path d="m30.557 7.4248c-1.9896 0.44782-3.9775 1.0701-5.9411 1.8744-8.5931 3.5223-15.358 10.018-18.558 17.823-2.5635 6.2481-2.6106 12.887-0.13197 18.693 5.0749 11.89 19.406 17.698 33.715 14.477 1.989-0.4477 3.9771-1.0699 5.9413-1.8745 8.5929-3.5225 15.357-10.018 18.558-17.823 2.5633-6.2481 2.6106-12.887 0.1316-18.693-5.0745-11.889-19.406-17.698-33.715-14.476zm9.1261 53.048c-14.396 3.2427-28.818-2.611-33.928-14.585-2.4983-5.852-2.452-12.542 0.13057-18.836 3.2193-7.8497 10.021-14.382 18.66-17.924 16.18-6.6325 34.079-0.93452 39.898 12.701 2.4979 5.8522 2.4515 12.542-0.1305 18.837-3.2195 7.8503-10.021 14.383-18.66 17.924-1.9721 0.8083-3.971 1.4343-5.9695 1.8837z" fill="url(#k)"/>
<path d="m29.228 5.4168c-0.9845 0.22184-1.9656 0.48831-2.94 0.79871-16.573 5.2848-26.103 21.985-21.245 37.228 4.5754 14.351 20.303 22.371 35.959 18.847 0.971-0.2182 1.9403-0.481 2.9078-0.7896 8.03-2.5609 14.662-7.8447 18.674-14.877 4.0103-7.0308 4.9237-14.968 2.5703-22.35-2.3537-7.3819-7.6907-13.326-15.03-16.738-6.4501-2.9972-13.768-3.7237-20.896-2.119zm11.815 57.055c-15.751 3.5476-31.572-4.5268-36.177-18.972-4.8895-15.34 4.6944-32.145 21.365-37.461 8.074-2.5748 16.587-2.1033 23.971 1.3286 7.3869 3.4337 12.76 9.4176 15.129 16.85 2.3689 7.4321 1.4503 15.422-2.5868 22.499-4.0353 7.0736-10.704 12.387-18.778 14.962-0.9717 0.3102-1.949 0.575-2.9237 0.7946z" fill="url(#i)"/>
<path d="m28.175 3.0832c-16.97 3.8205-27.67 20.735-23.852 37.704 3.8177 16.969 20.73 27.666 37.7 23.846 16.97-3.8209 27.67-20.735 23.852-37.704-3.8176-16.969-20.73-27.667-37.7-23.846zm13.889 61.731c-17.07 3.8436-34.082-6.9169-37.922-23.986-3.8409-17.069 6.9224-34.083 23.992-37.926 17.07-3.8436 34.082 6.9171 37.922 23.987 3.8408 17.07-6.9223 34.083-23.993 37.926z" fill="url(#h)"/>
</g>
<defs>
<linearGradient id="af" x1="21.261" x2="48.937" y1="33.858" y2="33.858" gradientUnits="userSpaceOnUse">
<stop stop-color="#757F9A" offset="0"/>
<stop stop-color="#D7DDE8" offset="1"/>
</linearGradient>
<linearGradient id="u" x1="22.48" x2="47.575" y1="33.862" y2="33.862" gradientUnits="userSpaceOnUse">
<stop stop-color="#757F9A" offset="0"/>
<stop stop-color="#D7DDE8" offset="1"/>
</linearGradient>
<linearGradient id="j" x1="23.685" x2="46.366" y1="33.893" y2="33.893" gradientUnits="userSpaceOnUse">
<stop stop-color="#757F9A" offset="0"/>
<stop stop-color="#D7DDE8" offset="1"/>
</linearGradient>
<linearGradient id="g" x1="24.625" x2="45.353" y1="33.924" y2="33.924" gradientUnits="userSpaceOnUse">
<stop stop-color="#757F9A" offset="0"/>
<stop stop-color="#D7DDE8" offset="1"/>
</linearGradient>
<linearGradient id="f" x1="25.677" x2="44.196" y1="34.038" y2="34.038" gradientUnits="userSpaceOnUse">
<stop stop-color="#757F9A" offset="0"/>
<stop stop-color="#D7DDE8" offset="1"/>
</linearGradient>
<linearGradient id="e" x1="26.797" x2="43.154" y1="33.974" y2="33.974" gradientUnits="userSpaceOnUse">
<stop stop-color="#757F9A" offset="0"/>
<stop stop-color="#D7DDE8" offset="1"/>
</linearGradient>
<linearGradient id="d" x1="27.963" x2="42.064" y1="33.91" y2="33.91" gradientUnits="userSpaceOnUse">
<stop stop-color="#757F9A" offset="0"/>
<stop stop-color="#D7DDE8" offset="1"/>
</linearGradient>
<linearGradient id="c" x1="28.94" x2="41.023" y1="33.967" y2="33.967" gradientUnits="userSpaceOnUse">
<stop stop-color="#757F9A" offset="0"/>
<stop stop-color="#D7DDE8" offset="1"/>
</linearGradient>
<linearGradient id="b" x1="29.906" x2="40.133" y1="33.903" y2="33.903" gradientUnits="userSpaceOnUse">
<stop stop-color="#757F9A" offset="0"/>
<stop stop-color="#D7DDE8" offset="1"/>
</linearGradient>
<linearGradient id="a" x1="30.632" x2="39.219" y1="33.837" y2="33.837" gradientUnits="userSpaceOnUse">
<stop stop-color="#757F9A" offset="0"/>
<stop stop-color="#D7DDE8" offset="1"/>
</linearGradient>
<linearGradient id="ae" x1="31.276" x2="38.58" y1="33.787" y2="33.787" gradientUnits="userSpaceOnUse">
<stop stop-color="#757F9A" offset="0"/>
<stop stop-color="#D7DDE8" offset="1"/>
</linearGradient>
<linearGradient id="ad" x1="31.921" x2="37.961" y1="33.843" y2="33.843" gradientUnits="userSpaceOnUse">
<stop stop-color="#757F9A" offset="0"/>
<stop stop-color="#D7DDE8" offset="1"/>
</linearGradient>
<linearGradient id="ac" x1="20.169" x2="50.027" y1="33.858" y2="33.858" gradientUnits="userSpaceOnUse">
<stop stop-color="#757F9A" offset="0"/>
<stop stop-color="#D7DDE8" offset="1"/>
</linearGradient>
<linearGradient id="ab" x1="19.041" x2="51.158" y1="33.858" y2="33.858" gradientUnits="userSpaceOnUse">
<stop stop-color="#757F9A" offset="0"/>
<stop stop-color="#D7DDE8" offset="1"/>
</linearGradient>
<linearGradient id="aa" x1="17.882" x2="52.314" y1="33.858" y2="33.858" gradientUnits="userSpaceOnUse">
<stop stop-color="#757F9A" offset="0"/>
<stop stop-color="#D7DDE8" offset="1"/>
</linearGradient>
<linearGradient id="z" x1="16.707" x2="53.492" y1="33.858" y2="33.858" gradientUnits="userSpaceOnUse">
<stop stop-color="#757F9A" offset="0"/>
<stop stop-color="#D7DDE8" offset="1"/>
</linearGradient>
<linearGradient id="y" x1="15.551" x2="54.647" y1="33.858" y2="33.858" gradientUnits="userSpaceOnUse">
<stop stop-color="#757F9A" offset="0"/>
<stop stop-color="#D7DDE8" offset="1"/>
</linearGradient>
<linearGradient id="x" x1="14.367" x2="55.83" y1="33.858" y2="33.858" gradientUnits="userSpaceOnUse">
<stop stop-color="#757F9A" offset="0"/>
<stop stop-color="#D7DDE8" offset="1"/>
</linearGradient>
<linearGradient id="w" x1="13.195" x2="57.001" y1="33.858" y2="33.858" gradientUnits="userSpaceOnUse">
<stop stop-color="#757F9A" offset="0"/>
<stop stop-color="#D7DDE8" offset="1"/>
</linearGradient>
<linearGradient id="v" x1="12.047" x2="58.15" y1="33.858" y2="33.858" gradientUnits="userSpaceOnUse">
<stop stop-color="#757F9A" offset="0"/>
<stop stop-color="#D7DDE8" offset="1"/>
</linearGradient>
<linearGradient id="t" x1="10.931" x2="59.265" y1="33.858" y2="33.858" gradientUnits="userSpaceOnUse">
<stop stop-color="#757F9A" offset="0"/>
<stop stop-color="#D7DDE8" offset="1"/>
</linearGradient>
<linearGradient id="s" x1="9.8604" x2="60.338" y1="33.858" y2="33.858" gradientUnits="userSpaceOnUse">
<stop stop-color="#757F9A" offset="0"/>
<stop stop-color="#D7DDE8" offset="1"/>
</linearGradient>
<linearGradient id="r" x1="8.8418" x2="61.355" y1="33.858" y2="33.858" gradientUnits="userSpaceOnUse">
<stop stop-color="#757F9A" offset="0"/>
<stop stop-color="#D7DDE8" offset="1"/>
</linearGradient>
<linearGradient id="q" x1="7.8877" x2="62.31" y1="33.858" y2="33.858" gradientUnits="userSpaceOnUse">
<stop stop-color="#757F9A" offset="0"/>
<stop stop-color="#D7DDE8" offset="1"/>
</linearGradient>
<linearGradient id="p" x1="7.0029" x2="63.194" y1="33.858" y2="33.858" gradientUnits="userSpaceOnUse">
<stop stop-color="#757F9A" offset="0"/>
<stop stop-color="#D7DDE8" offset="1"/>
</linearGradient>
<linearGradient id="o" x1="6.1963" x2="64.001" y1="33.858" y2="33.858" gradientUnits="userSpaceOnUse">
<stop stop-color="#757F9A" offset="0"/>
<stop stop-color="#D7DDE8" offset="1"/>
</linearGradient>
<linearGradient id="n" x1="5.4766" x2="64.721" y1="33.858" y2="33.858" gradientUnits="userSpaceOnUse">
<stop stop-color="#757F9A" offset="0"/>
<stop stop-color="#D7DDE8" offset="1"/>
</linearGradient>
<linearGradient id="m" x1="4.8486" x2="65.348" y1="33.858" y2="33.858" gradientUnits="userSpaceOnUse">
<stop stop-color="#757F9A" offset="0"/>
<stop stop-color="#D7DDE8" offset="1"/>
</linearGradient>
<linearGradient id="l" x1="4.3174" x2="65.879" y1="33.858" y2="33.858" gradientUnits="userSpaceOnUse">
<stop stop-color="#757F9A" offset="0"/>
<stop stop-color="#D7DDE8" offset="1"/>
</linearGradient>
<linearGradient id="k" x1="3.9141" x2="66.283" y1="33.858" y2="33.858" gradientUnits="userSpaceOnUse">
<stop stop-color="#757F9A" offset="0"/>
<stop stop-color="#D7DDE8" offset="1"/>
</linearGradient>
<linearGradient id="i" x1="3.5898" x2="66.621" y1="33.852" y2="33.852" gradientUnits="userSpaceOnUse">
<stop stop-color="#757F9A" offset="0"/>
<stop stop-color="#D7DDE8" offset="1"/>
</linearGradient>
<linearGradient id="h" x1="3.3643" x2="66.834" y1="33.858" y2="33.858" gradientUnits="userSpaceOnUse">
<stop stop-color="#757F9A" offset="0"/>
<stop stop-color="#D7DDE8" offset="1"/>
</linearGradient>
</defs>
</svg>
