<svg width="30" height="40" viewBox="0 0 30 40" fill="none" xmlns="http://www.w3.org/2000/svg">
<path d="M11.5888 39.9982C8.70309 39.9982 6.10224 38.9277 4.06403 36.9029C1.44196 34.2979 0 30.3842 0 25.8831C0 20.6255 2.65923 16.0856 4.6019 12.7716L4.89914 12.2619C5.10083 11.9162 5.48654 11.7204 5.88462 11.7645C6.28271 11.8068 6.61887 12.0784 6.74272 12.4594C8.02191 16.3908 9.9805 19.4261 11.7073 22.1035C13.6518 25.1177 15.3308 27.7209 15.3308 30.6011C15.3308 32.938 13.6429 34.633 11.3181 34.633C9.96635 34.633 8.72254 34.0545 7.71582 32.961C5.76077 30.8339 4.93983 27.0154 5.16098 24.5021C5.21052 23.9448 5.70415 23.5321 6.26148 23.5815C6.82057 23.6309 7.23281 24.1212 7.18504 24.6785C7.00281 26.7456 7.72821 29.9767 9.2144 31.5923C9.8425 32.2749 10.5308 32.6082 11.3199 32.6082C12.5424 32.6082 13.3014 31.8392 13.3014 30.6011C13.3014 28.3153 11.8436 26.0577 9.99997 23.1987C8.51377 20.8953 6.86303 18.3361 5.56615 15.1509C3.88534 18.098 2.02936 21.8248 2.02936 25.8831C2.02936 29.8427 3.26078 33.2467 5.49715 35.469C7.14612 37.1075 9.25156 37.9735 11.5888 37.9735C11.5994 37.9735 11.6082 37.9735 11.6171 37.9735C15.5785 37.9611 18.5668 34.9169 18.5668 30.8921C18.5668 26.7897 16.3021 23.2746 14.1135 19.8741C11.9479 16.5107 9.70803 13.0344 9.69565 9.00779C9.69565 5.57029 11.3535 2.44496 14.363 0.201503C14.7859 -0.11244 15.3786 -0.0542372 15.7289 0.339074C18.1068 2.99701 29.9698 16.7506 29.9999 26.504C30.0158 31.5253 28.105 35.8852 24.7575 38.4656C24.4231 38.7231 23.9631 38.7478 23.6022 38.5273C23.243 38.3051 23.0572 37.8853 23.1386 37.4708C23.7083 34.5642 23.8092 33.677 23.8092 31.5341C23.8092 25.3134 20.3909 19.6854 17.3761 14.7223C16.5091 13.2954 15.6917 11.9497 14.9769 10.6322C14.7098 10.1401 14.8938 9.52633 15.3874 9.26C15.8793 8.99368 16.4968 9.17711 16.7639 9.66919C17.4557 10.9426 18.2607 12.2689 19.1135 13.6746C22.2664 18.8653 25.8403 24.7491 25.8403 31.5359C25.8403 32.7317 25.8102 33.5765 25.6952 34.5483C27.1726 32.4019 27.9794 29.6099 27.9688 26.511C27.9475 19.7507 21.035 9.484 14.8549 2.41498C13.4518 3.66017 11.7268 5.83661 11.7268 9.00779C11.7374 12.44 13.7225 15.5212 15.8227 18.7824C18.1705 22.428 20.5979 26.1971 20.5979 30.8939C20.5979 35.984 16.656 39.9841 11.6242 40C11.6135 39.9982 11.6012 39.9982 11.5888 39.9982Z" fill="black"/>
</svg>
