<svg width="122" height="122" viewBox="0 0 122 122" fill="none" xmlns="http://www.w3.org/2000/svg">
<path d="M25.2228 57.7659C25.2229 57.0885 25.3568 56.4177 25.6169 55.7921C25.877 55.1666 26.258 54.5986 26.7382 54.1207C27.2184 53.6428 27.7883 53.2645 28.4151 53.0075C29.0419 52.7504 29.7133 52.6197 30.3908 52.6229L38.9588 52.6509C40.3249 52.6509 41.6351 53.1936 42.6011 54.1596C43.5671 55.1256 44.1098 56.4358 44.1098 57.8019V90.2019C45.0748 89.9159 46.3098 89.6109 47.6688 89.2909C48.6103 89.0694 49.4494 88.5363 50.05 87.7781C50.6506 87.02 50.9776 86.0811 50.9778 85.1139V44.9269C50.9778 43.5607 51.5204 42.2504 52.4864 41.2842C53.4524 40.3181 54.7626 39.7752 56.1288 39.7749H64.7228C66.089 39.7752 67.3992 40.3181 68.3651 41.2842C69.3311 42.2504 69.8738 43.5607 69.8738 44.9269V82.2269C69.8738 82.2269 72.0238 81.3569 74.1168 80.4729C74.8945 80.144 75.5582 79.5933 76.025 78.8896C76.4918 78.1859 76.7411 77.3604 76.7418 76.5159V32.0489C76.7418 30.6829 77.2843 29.3729 78.2501 28.4069C79.2159 27.441 80.5258 26.8982 81.8918 26.8979H90.4768C91.842 26.8992 93.1509 27.4425 94.1158 28.4084C95.0808 29.3742 95.6228 30.6836 95.6228 32.0489V68.6659C103.066 63.2719 110.609 56.7839 116.595 48.9829C117.463 47.8505 118.038 46.5208 118.268 45.1123C118.497 43.7039 118.375 42.2605 117.911 40.9109C115.14 32.939 110.735 25.6334 104.979 19.4615C99.2225 13.2895 92.241 8.38724 84.4813 5.06829C76.7216 1.74935 68.3544 0.086834 59.9153 0.187145C51.4762 0.287456 43.1509 2.14838 35.4723 5.65083C27.7936 9.15328 20.9307 14.2201 15.3226 20.5271C9.71457 26.8342 5.48488 34.2424 2.90423 42.2779C0.323578 50.3134 -0.551199 58.7991 0.33587 67.1921C1.22294 75.5851 3.85232 83.7004 8.05576 91.0189C8.7881 92.2814 9.86553 93.3087 11.1615 93.98C12.4574 94.6514 13.918 94.9389 15.3718 94.8089C16.9958 94.6659 19.0178 94.4639 21.4218 94.1819C22.468 94.0628 23.434 93.5632 24.1356 92.778C24.8373 91.9928 25.2257 90.9769 25.2268 89.9239V57.7659" fill="#0A14EE"/>
<path d="M25.0391 109.727C34.0883 116.31 44.7823 120.262 55.9379 121.144C67.0934 122.027 78.2758 119.806 88.2476 114.728C98.2195 109.65 106.592 101.912 112.439 92.3707C118.286 82.8293 121.38 71.8564 121.378 60.6659C121.378 59.2659 121.313 57.8879 121.22 56.5139C99.057 89.5689 58.1351 105.022 25.0391 109.727" fill="#0A14EE"/>
</svg>
