<svg width="16" height="16" viewBox="0 0 16 16" fill="none" xmlns="http://www.w3.org/2000/svg">
<path d="M6.74922 14.9994C5.69113 14.9994 4.73749 14.6247 3.99015 13.916C3.02872 13.0042 2.5 11.6344 2.5 10.0591C2.5 8.2189 3.47505 6.62998 4.18736 5.47006L4.29635 5.29166C4.37031 5.17067 4.51173 5.10215 4.6577 5.11758C4.80366 5.1324 4.92692 5.22746 4.97233 5.3608C5.44137 6.73678 6.15952 7.79913 6.79268 8.7362C7.50565 9.79117 8.1213 10.7023 8.1213 11.7104C8.1213 12.5283 7.5024 13.1215 6.64996 13.1215C6.15433 13.1215 5.69827 12.9191 5.32914 12.5363C4.61228 11.7919 4.31127 10.4555 4.39236 9.5758C4.41053 9.38067 4.59152 9.23628 4.79588 9.2535C5.00088 9.27079 5.15203 9.4424 5.13452 9.63753C5.0677 10.361 5.33368 11.4919 5.87862 12.0573C6.10892 12.2962 6.36128 12.4129 6.65061 12.4129C7.09889 12.4129 7.3772 12.1437 7.3772 11.7104C7.3772 10.9103 6.84264 10.1202 6.16665 9.11955C5.62172 8.31334 5.01645 7.41763 4.54092 6.30281C3.92462 7.3343 3.2441 8.63866 3.2441 10.0591C3.2441 11.4449 3.69562 12.6363 4.51562 13.4141C5.12024 13.9876 5.89224 14.2907 6.74922 14.2907C6.75311 14.2907 6.75636 14.2907 6.7596 14.2907C8.21212 14.2864 9.30783 13.2209 9.30783 11.8122C9.30783 10.3764 8.47745 9.14609 7.67496 7.95592C6.88091 6.77875 6.05961 5.56204 6.05507 4.15273C6.05507 2.94961 6.66294 1.85574 7.76644 1.07053C7.92148 0.960646 8.13881 0.981017 8.26726 1.11868C9.13916 2.04896 13.4889 6.86271 13.5 10.2764C13.5058 12.0338 12.8052 13.5598 11.5778 14.4629C11.4551 14.5531 11.2865 14.5617 11.1541 14.4845C11.0224 14.4068 10.9543 14.2599 10.9842 14.1148C11.1931 13.0975 11.23 12.787 11.23 12.0369C11.23 9.8597 9.97668 7.88987 8.87123 6.15281C8.55335 5.6534 8.25364 5.1824 7.99155 4.72127C7.89359 4.54904 7.96106 4.33422 8.14205 4.24101C8.3224 4.1478 8.54881 4.212 8.64677 4.38422C8.90043 4.82992 9.1956 5.29413 9.50829 5.78613C10.6643 7.60283 11.9748 9.66216 11.9748 12.0375C11.9748 12.4561 11.9638 12.7518 11.9216 13.0919C12.4633 12.3406 12.7591 11.3635 12.7552 10.2788C12.7474 7.91271 10.2128 4.31941 7.94679 1.84525C7.43234 2.28106 6.79982 3.04282 6.79982 4.15273C6.80371 5.35401 7.53159 6.43244 8.30164 7.57381C9.16252 8.84978 10.0526 10.169 10.0526 11.8129C10.0526 13.5944 8.6072 14.9944 6.76219 15C6.7583 14.9994 6.75376 14.9994 6.74922 14.9994Z" fill="black"/>
</svg>
