<svg width="24" height="24" viewBox="0 0 24 24" fill="none" xmlns="http://www.w3.org/2000/svg">
<path d="M10.1238 22.4991C8.5367 22.4991 7.10623 21.937 5.98522 20.874C4.54308 19.5064 3.75 17.4517 3.75 15.0886C3.75 12.3283 5.21257 9.94497 6.28104 8.2051L6.44452 7.9375C6.55546 7.75601 6.76759 7.65323 6.98654 7.67637C7.20549 7.6986 7.39038 7.8412 7.4585 8.0412C8.16205 10.1052 9.23928 11.6987 10.189 13.1043C11.2585 14.6868 12.1819 16.0535 12.1819 17.5656C12.1819 18.7925 11.2536 19.6823 9.97494 19.6823C9.23149 19.6823 8.5474 19.3786 7.99371 18.8045C6.91843 17.6878 6.46691 15.6832 6.58854 14.3637C6.61579 14.071 6.88729 13.8544 7.19381 13.8803C7.50131 13.9062 7.72805 14.1636 7.70177 14.4563C7.60154 15.5415 8.00052 17.2378 8.81792 18.086C9.16338 18.4443 9.54191 18.6193 9.97592 18.6193C10.6483 18.6193 11.0658 18.2156 11.0658 17.5656C11.0658 16.3655 10.264 15.1803 9.24998 13.6793C8.43257 12.47 7.52467 11.1264 6.81138 9.45421C5.88694 11.0014 4.86615 12.958 4.86615 15.0886C4.86615 17.1674 5.54343 18.9545 6.77343 20.1212C7.68037 20.9814 8.83836 21.4361 10.1238 21.4361C10.1297 21.4361 10.1345 21.4361 10.1394 21.4361C12.3182 21.4296 13.9617 19.8314 13.9617 17.7183C13.9617 15.5646 12.7162 13.7191 11.5124 11.9339C10.3214 10.1681 9.08942 8.34306 9.08261 6.2291C9.08261 4.42441 9.99441 2.78361 11.6497 1.60579C11.8822 1.44097 12.2082 1.47153 12.4009 1.67801C13.7087 3.07343 20.2334 10.2941 20.2499 15.4146C20.2587 18.0508 19.2078 20.3397 17.3666 21.6944C17.1827 21.8296 16.9297 21.8426 16.7312 21.7268C16.5337 21.6102 16.4315 21.3899 16.4762 21.1722C16.7896 19.6463 16.8451 19.1804 16.8451 18.0554C16.8451 14.7895 14.965 11.8348 13.3069 9.22921C12.83 8.48011 12.3805 7.7736 11.9873 7.08191C11.8404 6.82357 11.9416 6.50133 12.2131 6.36151C12.4836 6.22169 12.8232 6.31799 12.9702 6.57634C13.3506 7.24488 13.7934 7.9412 14.2624 8.67919C15.9965 11.4042 17.9622 14.4932 17.9622 18.0563C17.9622 18.6841 17.9456 19.1277 17.8824 19.6379C18.6949 18.511 19.1387 17.0452 19.1328 15.4183C19.1211 11.8691 15.3192 6.47911 11.9202 2.76787C11.1485 3.4216 10.1997 4.56423 10.1997 6.2291C10.2056 8.03102 11.2974 9.64867 12.4525 11.3607C13.7438 13.2747 15.0789 15.2534 15.0789 17.7193C15.0789 20.3916 12.9108 22.4917 10.1433 22.5C10.1375 22.4992 10.1306 22.4991 10.1238 22.4991Z" fill="black"/>
</svg>
