<svg width="36" height="36" viewBox="0 0 36 36" fill="none" xmlns="http://www.w3.org/2000/svg">
<path d="M15.1857 33.7486C12.805 33.7486 10.6594 32.9055 8.97783 31.311C6.81462 29.2596 5.625 26.1775 5.625 22.6329C5.625 18.4925 7.81886 14.9175 9.42156 12.3076L9.66679 11.9062C9.83319 11.634 10.1514 11.4798 10.4798 11.5146C10.8082 11.5479 11.0856 11.7618 11.1877 12.0618C12.2431 15.1577 13.8589 17.548 15.2835 19.6564C16.8877 22.0301 18.2729 24.0802 18.2729 26.3483C18.2729 28.1887 16.8804 29.5235 14.9624 29.5235C13.8472 29.5235 12.8211 29.0679 11.9906 28.2067C10.3776 26.5317 9.70036 23.5248 9.88281 21.5455C9.92369 21.1065 10.3309 20.7816 10.7907 20.8204C11.252 20.8593 11.5921 21.2454 11.5527 21.6844C11.4023 23.3123 12.0008 25.8567 13.2269 27.1289C13.7451 27.6665 14.3129 27.929 14.9639 27.929C15.9725 27.929 16.5987 27.3234 16.5987 26.3483C16.5987 24.5483 15.3959 22.7704 13.875 20.519C12.6489 18.705 11.287 16.6897 10.2171 14.1813C8.8304 16.5022 7.29922 19.437 7.29922 22.6329C7.29922 25.7511 8.31514 28.4318 10.1601 30.1818C11.5205 31.4721 13.2575 32.1541 15.1857 32.1541C15.1945 32.1541 15.2018 32.1541 15.2091 32.1541C18.4773 32.1444 20.9426 29.7471 20.9426 26.5775C20.9426 23.3469 19.0743 20.5787 17.2687 17.9008C15.4821 15.2522 13.6341 12.5146 13.6239 9.34365C13.6239 6.63661 14.9916 4.17541 17.4745 2.40868C17.8233 2.16145 18.3123 2.20729 18.6013 2.51702C20.5631 4.61015 30.3501 15.4411 30.3749 23.1218C30.3881 27.0762 28.8116 30.5096 26.05 32.5416C25.7741 32.7444 25.3946 32.7639 25.0968 32.5902C24.8005 32.4152 24.6472 32.0848 24.7144 31.7583C25.1844 29.4694 25.2676 28.7707 25.2676 27.0831C25.2676 22.1843 22.4475 17.7522 19.9603 13.8438C19.245 12.7202 18.5707 11.6604 17.981 10.6229C17.7606 10.2354 17.9124 9.752 18.3196 9.54227C18.7254 9.33254 19.2348 9.47699 19.4552 9.8645C20.026 10.8673 20.6901 11.9118 21.3937 13.0188C23.9948 17.1064 26.9433 21.7399 26.9433 27.0845C26.9433 28.0262 26.9185 28.6915 26.8236 29.4568C28.0424 27.7665 28.708 25.5678 28.6992 23.1274C28.6817 17.8036 22.9788 9.71867 17.8803 4.1518C16.7228 5.13239 15.2996 6.84634 15.2996 9.34365C15.3084 12.0465 16.9461 14.473 18.6787 17.0411C20.6157 19.912 22.6183 22.8802 22.6183 26.5789C22.6183 30.5874 19.3662 33.7375 15.2149 33.75C15.2062 33.7487 15.196 33.7486 15.1857 33.7486Z" fill="black"/>
</svg>
